<svg width="20" height="20" viewBox="0 0 20 20" fill="none" xmlns="http://www.w3.org/2000/svg">
<g clip-path="url(#clip0_3157_4339)">
<path fill-rule="evenodd" clip-rule="evenodd" d="M3.33325 2.50004C2.87682 2.50004 2.49992 2.87694 2.49992 3.33337V11.6667C2.49992 12.1231 2.87682 12.5 3.33325 12.5C3.79349 12.5 4.16658 12.8731 4.16658 13.3334C4.16658 13.7936 3.79349 14.1667 3.33325 14.1667C1.95635 14.1667 0.833252 13.0436 0.833252 11.6667V3.33337C0.833252 1.95647 1.95635 0.833374 3.33325 0.833374H11.6666C13.0435 0.833374 14.1666 1.95647 14.1666 3.33337C14.1666 3.79361 13.7935 4.16671 13.3333 4.16671C12.873 4.16671 12.4999 3.79361 12.4999 3.33337C12.4999 2.87694 12.123 2.50004 11.6666 2.50004H3.33325ZM8.33325 7.50004C7.87301 7.50004 7.49992 7.87314 7.49992 8.33337V16.6667C7.49992 17.1269 7.87301 17.5 8.33325 17.5H16.6666C17.1268 17.5 17.4999 17.1269 17.4999 16.6667V8.33337C17.4999 7.87314 17.1268 7.50004 16.6666 7.50004H8.33325ZM5.83325 8.33337C5.83325 6.95266 6.95254 5.83337 8.33325 5.83337H16.6666C18.0473 5.83337 19.1666 6.95266 19.1666 8.33337V16.6667C19.1666 18.0474 18.0473 19.1667 16.6666 19.1667H8.33325C6.95254 19.1667 5.83325 18.0474 5.83325 16.6667V8.33337Z" fill="#6F9DE2"/>
</g>
<defs>
<clipPath id="clip0_3157_4339">
<rect width="20" height="20" fill="white"/>
</clipPath>
</defs>
</svg>
